<?xml version="1.0" standalone="no"?>
<!DOCTYPE svg PUBLIC "-//W3C//DTD SVG 1.1//EN"
  "http://www.w3.org/Graphics/SVG/1.1/DTD/svg11.dtd">
<svg version="1.1" xmlns="http://www.w3.org/2000/svg" xmlns:xlink="http://www.w3.org/1999/xlink" width="3840" height="2160" viewBox="-1040.888888888889 -32 1889.7777777777778 1063" id="ccdiagram"><filter id="grayscale"><feColorMatrix type="matrix" values="0.3333 0.3333 0.3333 0 0 0.3333 0.3333 0.3333 0 0 0.3333 0.3333 0.3333 0 0 0 0 0 1 0"></feColorMatrix></filter><defs><style type="text/css">@import url('https://fonts.googleapis.com/css?family=Open+Sans:400,700|Inconsolata:400');</style></defs><g><rect x="-1040.888888888889" y="-32" width="1889.7777777777778" height="1063" fill="none" id="interactionLayer"></rect><g pointer-events="auto"><g opacity="1"><g id="35155d75-a622-4a82-bd9c-6475b766e114"><svg x="-272" y="379" overflow="visible"><g fill="#222f3d"><polygon points="0 0, 192 111, 16 213, -176 102" stroke="#222f3d" stroke-width="40"></polygon></g></svg></g></g><g opacity="1"><g id="d3caf0f6-9837-4e1d-95db-210e74b8cc15"><svg x="-48" y="509" overflow="visible"><g fill="#222f3d"><polygon points="0 0, 192 111, 16 213, -176 102" stroke="#222f3d" stroke-width="40"></polygon></g></svg></g></g></g><g pointer-events="auto"><g opacity="1"><g id="b5bad988-e989-4bbc-9bbf-9e8b0e06440d"><svg x="-304" y="398" overflow="visible"><polygon points="0 0, 464 268, 400 305, -64 37" fill="#f5b720"></polygon><polygon points="0 0, 464 268, 400 305, -64 37" fill="none" stroke-width="20" stroke="#f5b720" opacity="1"></polygon><g cursor="nwse-resize"><polygon points="0 0, -19 -11, 13 -30, -83 -11, -115 44, -83 26, -64 37" fill="#f5b720"></polygon><polygon points="464 268, 483 279, 515 261, 483 316, 387 335, 419 316, 400 305" fill="#f5b720"></polygon></g></svg></g></g></g><g pointer-events="auto"></g><g></g><g pointer-events="auto"></g><g></g><g pointer-events="auto"></g><g pointer-events="auto"></g><g pointer-events="none"></g><g pointer-events="auto"><g id="ccdb4bdf-a097-481f-a259-fb67920935ae-d14169fa-2eef-4998-a505-951c780b4e8d"><g cursor="cell"><line x1="-458" y1="746" x2="-493" y2="766" stroke="red" stroke-width="8" opacity="0"></line><line x1="-458" y1="746" x2="-493" y2="766" stroke="#ffffff" stroke-width="2" stroke-linecap="round"></line><polygon points="-448 740, -474 745, -460 747, -457 755, -448 740" stroke-linejoin="round" fill="#ffffff" stroke="#ffffff" stroke-width="1"></polygon></g></g><g id="e7545316-9e16-4418-8a78-a92c66d14dfd-b5bad988-e989-4bbc-9bbf-9e8b0e06440d"><g><g cursor="cell"><line x1="-16" y1="490" x2="-16" y2="490" stroke="red" stroke-width="9" opacity="0"></line><line x1="-16" y1="490" x2="-16" y2="490" stroke="#ffffff" stroke-width="3" stroke-linecap="round"></line></g><g cursor="cell"><line x1="-101" y1="466" x2="-96" y2="463" stroke="red" stroke-width="9" opacity="0"></line><line x1="-101" y1="466" x2="-96" y2="463" stroke="#ffffff" stroke-width="3" stroke-linecap="none"></line><polygon points="-112 472, -83 466, -98 464, -101 455, -112 472" stroke-linejoin="round" fill="#ffffff" stroke="#ffffff" stroke-width="1"></polygon></g><g cursor="cell"><line x1="-64" y1="463" x2="-96" y2="463" stroke="red" stroke-width="9" opacity="0"></line><line x1="-64" y1="463" x2="-96" y2="463" stroke="#ffffff" stroke-width="3" stroke-linecap="round"></line></g><g cursor="cell"><line x1="27" y1="558" x2="48" y2="546" stroke="red" stroke-width="9" opacity="0"></line><line x1="27" y1="558" x2="48" y2="546" stroke="#ffffff" stroke-width="3" stroke-linecap="none"></line><polygon points="16 564, 45 558, 30 556, 26 548, 16 564" stroke-linejoin="round" fill="#ffffff" stroke="#ffffff" stroke-width="1"></polygon></g><g cursor="cell"><line x1="48" y1="527" x2="48" y2="546" stroke="red" stroke-width="9" opacity="0"></line><line x1="48" y1="527" x2="48" y2="546" stroke="#ffffff" stroke-width="3" stroke-linecap="round"></line></g><g cursor="cell"><line x1="-64" y1="463" x2="48" y2="527" stroke="red" stroke-width="9" opacity="0"></line><line x1="-64" y1="463" x2="48" y2="527" stroke="#ffffff" stroke-width="3" stroke-linecap="round"></line></g></g></g><g id="503d728d-23e2-415c-bc98-5a3bcdb322b7-47a124a5-74af-4bd3-88c1-297c73af88bf"><g cursor="cell"><line x1="80" y1="435" x2="-120" y2="319" stroke="red" stroke-width="9" opacity="0"></line><line x1="80" y1="435" x2="-120" y2="319" stroke="#ffffff" stroke-width="3" stroke-linecap="round"></line><polygon points="-131 313, -121 329, -117 321, -102 319, -131 313" stroke-linejoin="round" fill="#ffffff" stroke="#ffffff" stroke-width="1"></polygon></g></g><g id="4fa727c9-36b9-4773-bf99-258500555073-b5bad988-e989-4bbc-9bbf-9e8b0e06440d"><g><g cursor="cell"><line x1="-271" y1="638" x2="-208" y2="601" stroke="red" stroke-width="8" opacity="0"></line><line x1="-271" y1="638" x2="-208" y2="601" stroke="#ffffff" stroke-width="2" stroke-linecap="round"></line></g><g cursor="cell"><line x1="-256" y1="555" x2="-217" y2="533" stroke="red" stroke-width="8" opacity="0"></line><line x1="-256" y1="555" x2="-217" y2="533" stroke="#ffffff" stroke-width="2" stroke-linecap="none"></line><polygon points="-208 527, -233 533, -220 535, -217 542, -208 527" stroke-linejoin="round" fill="#ffffff" stroke="#ffffff" stroke-width="1"></polygon></g><g cursor="cell"><line x1="-256" y1="574" x2="-256" y2="555" stroke="red" stroke-width="8" opacity="0"></line><line x1="-256" y1="574" x2="-256" y2="555" stroke="#ffffff" stroke-width="2" stroke-linecap="round"></line></g><g cursor="cell"><line x1="-112" y1="638" x2="-90" y2="625" stroke="red" stroke-width="8" opacity="0"></line><line x1="-112" y1="638" x2="-90" y2="625" stroke="#ffffff" stroke-width="2" stroke-linecap="none"></line><polygon points="-80 620, -106 625, -92 627, -89 635, -80 620" stroke-linejoin="round" fill="#ffffff" stroke="#ffffff" stroke-width="1"></polygon></g><g cursor="cell"><line x1="-144" y1="638" x2="-112" y2="638" stroke="red" stroke-width="8" opacity="0"></line><line x1="-144" y1="638" x2="-112" y2="638" stroke="#ffffff" stroke-width="2" stroke-linecap="round"></line></g><g cursor="cell"><line x1="-256" y1="574" x2="-144" y2="638" stroke="red" stroke-width="8" opacity="0"></line><line x1="-256" y1="574" x2="-144" y2="638" stroke="#ffffff" stroke-width="2" stroke-linecap="round"></line></g></g></g><g id="503d728d-23e2-415c-bc98-5a3bcdb322b7-d83f96af-5cf2-43ec-8673-ae8bd08872a0"><g cursor="cell"><line x1="80" y1="435" x2="118" y2="413" stroke="red" stroke-width="8" opacity="0"></line><line x1="80" y1="435" x2="118" y2="413" stroke="#ffffff" stroke-width="2" stroke-linecap="round"></line><polygon points="128 407, 102 412, 116 414, 119 422, 128 407" stroke-linejoin="round" fill="#ffffff" stroke="#ffffff" stroke-width="1"></polygon></g></g><g id="ccdb4bdf-a097-481f-a259-fb67920935ae-4fa727c9-36b9-4773-bf99-258500555073"><g cursor="cell"><line x1="-392" y1="707" x2="-362" y2="690" stroke="red" stroke-width="8" opacity="0"></line><line x1="-392" y1="707" x2="-362" y2="690" stroke="#ffffff" stroke-width="2" stroke-linecap="round"></line><polygon points="-352 685, -378 690, -364 692, -361 699, -352 685" stroke-linejoin="round" fill="#ffffff" stroke="#ffffff" stroke-width="1"></polygon></g></g><g id="503d728d-23e2-415c-bc98-5a3bcdb322b7-e7545316-9e16-4418-8a78-a92c66d14dfd"><g cursor="cell"><line x1="80" y1="435" x2="-16" y2="490" stroke="red" stroke-width="9" opacity="0"></line><line x1="80" y1="435" x2="-16" y2="490" stroke="#ffffff" stroke-width="3" stroke-linecap="round"></line></g></g></g><g pointer-events="auto"><g opacity="1"><g id="d83f96af-5cf2-43ec-8673-ae8bd08872a0" transform="translate(0 0)"><svg x="96" y="315" height="111" width="128" fill-rule="evenodd" stroke-linejoin="round" stroke-miterlimit="1.414" xml:space="preserve"><path d="M64 74v37l64-37V37L64 74Z" fill="#1a1c1e"></path><path d="M0 37v37l64 37V74L0 37Z" fill="#31353a"></path><path d="M0 37 64 0l64 37-64 37L0 37Z" fill="#484e56"></path><path d="m64 73.407 62.111-35.86.514.889-62.487 36.078h-.276L.743 38.072l.514-.89L64 73.407Z" fill="#000"></path><path d="M63.486 74h1.027v36h-1.027z" fill="#000"></path><path d="M128 37v37l-64 37L0 74V37L64 0l64 37ZM2.054 38.185v34.63L64 108.627l61.946-35.812v-34.63L64 2.373 2.054 38.185Z" fill="#131417"></path></svg><svg x="154" y="333" width="54" height="36" style="overflow: visible; cursor: default;"><rect transform="matrix(0.707 0.409 -0.707 0.409 0 0)" width="54" height="36" rx="5" ry="5" fill="#ffffff"></rect><text transform="matrix(0.707 0.409 -0.707 0.409 0 0)" font-family="Open Sans" text-anchor="middle" x="50%" font-weight="normal" font-size="20pt" y="80%" fill="#000000"><tspan>T2</tspan></text></svg></g></g><g opacity="1"><g id="47a124a5-74af-4bd3-88c1-297c73af88bf" transform="translate(0 0)"><svg x="-195" y="203" height="115.695" width="100.625" viewBox="0 0 26.624 30.611"><path d="M13.312.306v15l12.99-7.5z" fill="#484e56" fill-rule="evenodd"></path><path d="m.321 7.806 12.99 7.5v-15z" fill="#1a1c1e" fill-rule="evenodd"></path><path d="M13.312.306v15" fill="none" stroke="#000" stroke-width=".265"></path><path d="m13.312 15.306 12.99-7.5-6.495 18.75-6.495 3.75z" fill="#1a1c1e" fill-rule="evenodd"></path><path d="m.321 7.806 12.99 7.5v15l-6.494-3.75z" fill="#31353a" fill-rule="evenodd"></path><path d="m.321 7.806 12.99 7.5 12.991-7.5-12.99 7.5v15" fill="none" stroke="#000" stroke-width=".265"></path><path d="m13.312.306-12.99 7.5 6.495 18.75 6.495 3.75 6.495-3.75 6.495-18.75z" fill="none" stroke="#131417" stroke-width=".529"></path></svg></g></g><g opacity="1"><g id="e80cc0c3-adbf-49fe-849d-816535638a29" transform="translate(0 0)"><svg x="-240" y="435" height="111" width="128" fill-rule="evenodd" stroke-linejoin="round" stroke-miterlimit="1.414" xml:space="preserve"><path d="M64 74v37l64-37V37L64 74Z" fill="#1a1c1e"></path><path d="M0 37v37l64 37V74L0 37Z" fill="#31353a"></path><path d="M0 37 64 0l64 37-64 37L0 37Z" fill="#484e56"></path><path d="m64 73.407 62.111-35.86.514.889-62.487 36.078h-.276L.743 38.072l.514-.89L64 73.407Z" fill="#000"></path><path d="M63.486 74h1.027v36h-1.027z" fill="#000"></path><path d="M128 37v37l-64 37L0 74V37L64 0l64 37ZM2.054 38.185v34.63L64 108.627l61.946-35.812v-34.63L64 2.373 2.054 38.185Z" fill="#131417"></path></svg><svg x="-182" y="453" width="54" height="36" style="overflow: visible; cursor: default;"><rect transform="matrix(0.707 0.409 -0.707 0.409 0 0)" width="54" height="36" rx="5" ry="5" fill="#ffffff"></rect><text transform="matrix(0.707 0.409 -0.707 0.409 0 0)" font-family="Open Sans" text-anchor="middle" x="50%" font-weight="normal" font-size="20pt" y="80%" fill="#000000"><tspan>T2</tspan></text></svg></g></g><g opacity="1"><g id="62b6a890-1c4b-4a11-bf7f-25d37e6ee72c" transform="translate(0 0)"><svg x="-112" y="527" height="111" width="128" fill-rule="evenodd" stroke-linejoin="round" stroke-miterlimit="1.414" xml:space="preserve"><path d="M64 74v37l64-37V37L64 74Z" fill="#1a1c1e"></path><path d="M0 37v37l64 37V74L0 37Z" fill="#31353a"></path><path d="M0 37 64 0l64 37-64 37L0 37Z" fill="#484e56"></path><path d="m64 73.407 62.111-35.86.514.889-62.487 36.078h-.276L.743 38.072l.514-.89L64 73.407Z" fill="#000"></path><path d="M63.486 74h1.027v36h-1.027z" fill="#000"></path><path d="M128 37v37l-64 37L0 74V37L64 0l64 37ZM2.054 38.185v34.63L64 108.627l61.946-35.812v-34.63L64 2.373 2.054 38.185Z" fill="#131417"></path></svg><svg x="-54" y="546" width="54" height="36" style="overflow: visible; cursor: default;"><rect transform="matrix(0.707 0.409 -0.707 0.409 0 0)" width="54" height="36" rx="5" ry="5" fill="#ffffff"></rect><text transform="matrix(0.707 0.409 -0.707 0.409 0 0)" font-family="Open Sans" text-anchor="middle" x="50%" font-weight="normal" font-size="20pt" y="80%" fill="#000000"><tspan>T2</tspan></text></svg></g></g><g opacity="1"><g id="4fa727c9-36b9-4773-bf99-258500555073" transform="translate(0 0)"><svg x="-368" y="601" height="94" width="97" fill-rule="evenodd" stroke-miterlimit="1" xml:space="preserve"><path d="M0 18.6v18.6l32.333 18.6h32.334L97 37.2V18.6L64.667 0H32.333L0 18.6Z" fill="#484e56"></path><path d="M64.667 55.8 97 37.2v37.2L64.667 93V55.8Z" fill="#1a1c1e"></path><path d="M32.333 55.8h32.334V93H32.333V55.8ZM0 37.2v37.2L32.333 93V55.8L0 37.2Z" fill="#31353a"></path><path d="M.955 37.877 32.333 55.8h32.334l31.378-17.923M32.333 55.8v36.211M64.667 55.8v36.574" fill="none" stroke="#000" stroke-width="1.04"></path><path d="M97 18.6v55.8L64.667 93H32.333L0 74.4V18.6L32.333 0h32.334L97 18.6ZM32.865 1.989 1.989 19.751v53.498l30.876 17.762h31.27l30.876-17.762V19.751L64.135 1.989h-31.27Z" fill="#131417"></path><path d="M69.912 15.583c11.818 6.798 11.818 17.836 0 24.635-11.817 6.798-31.007 6.798-42.824 0-11.818-6.799-11.818-17.837 0-24.635 11.817-6.799 31.007-6.799 42.824 0Z" fill="#ffffff"></path><path d="M49.584 14.774c1.824 1.049 1.824 2.753 0 3.802-1.824 1.05-4.786 1.05-6.61 0-1.824-1.049-1.824-2.753 0-3.802 1.824-1.05 4.786-1.05 6.61 0Zm10.867 6.251c1.825 1.049 1.825 2.753 0 3.803-1.824 1.049-4.786 1.049-6.61 0-1.824-1.05-1.824-2.754 0-3.803s4.786-1.049 6.61 0Zm10.868 6.251c1.824 1.05 1.824 2.754 0 3.803-1.825 1.049-4.787 1.049-6.611 0-1.824-1.049-1.824-2.753 0-3.803 1.824-1.049 4.786-1.049 6.611 0Zm-32.822 6.378c1.824 1.05 1.824 2.754 0 3.803-1.825 1.05-4.787 1.05-6.611 0-1.824-1.049-1.824-2.753 0-3.803 1.824-1.049 4.786-1.049 6.611 0Z" fill="#000000"></path><path d="M47.458 15.878c.453.26.393.717-.133 1.02-.526.303-1.32.337-1.773.076-.452-.26-.392-.717.133-1.019.526-.303 1.321-.337 1.773-.077Z" fill="#000000"></path><path d="M48.111 15.621c1.012.582 1.012 1.526 0 2.108-1.011.582-2.653.582-3.664 0-1.012-.582-1.012-1.526 0-2.108 1.011-.582 2.653-.582 3.664 0Zm10.867 6.251c1.012.582 1.012 1.527 0 2.108-1.011.582-2.653.582-3.664 0-1.012-.581-1.012-1.526 0-2.108 1.011-.581 2.653-.581 3.664 0Zm10.868 6.252c1.011.581 1.011 1.526 0 2.108-1.012.582-2.654.582-3.665 0-1.011-.582-1.011-1.527 0-2.108 1.011-.582 2.653-.582 3.665 0Z" fill="#ffffff"></path><path d="M37.024 34.502c1.011.582 1.011 1.526 0 2.108-1.012.582-2.654.582-3.665 0-1.011-.582-1.011-1.526 0-2.108 1.011-.582 2.653-.582 3.665 0Zm15.277-9.33L37.719 33.56l.482.834 14.584-8.388-.484-.834Z" fill="#000000"></path><path d="m46.993 26.089 6.654-1.146-4.324 5.168c.189-1.691-.757-3.313-2.33-4.022Z" fill="#000000" stroke="#000000" stroke-width=".36"></path><path d="m43.488 19.937-6.057 13.797.886.387 6.056-13.798-.885-.386Z" fill="#000000"></path><path d="m39.76 23.812 4.676-4.854-.405 6.716c-.855-1.474-2.582-2.221-4.271-1.862Z" fill="#000000" stroke="#000000" stroke-width=".36"></path><path d="m61.953 30.061-23.985 3.483.14.955 23.985-3.486-.14-.952Z" fill="#000000"></path><path d="m56.68 28.957 6.608 1.387-5.936 3.209c.804-1.503.526-3.358-.672-4.596Z" fill="#000000" stroke="#000000" stroke-width=".36"></path><path d="m37.96 33.977 13.12-7.547m-13.207 7.497 5.792-13.134m-5.628 13.229 22.478-3.281" fill="#000000" stroke="#000000" stroke-width="1.93"></path></svg></g></g><g opacity="1"><g id="ccdb4bdf-a097-481f-a259-fb67920935ae" transform="translate(0 0)"><svg x="-473" y="660" height="93.28" width="81" viewBox="0 0 21.431 24.68"><path d="m.267 5.103 12.538 7.237 5.224-.603 3.134-9.048-4.18-2.412-15.67 1.81z" fill="#484e56" fill-rule="evenodd"></path><path d="M.267 5.103v12.063l12.538 7.238V12.34zm12.538 7.237 5.224-.603v12.064l-5.224.603z" fill="#31353a" fill-rule="evenodd"></path><path d="m18.029 11.737 3.134-9.048v12.064l-3.134 9.048z" fill="#1a1c1e" fill-rule="evenodd"></path><path d="m.267 5.103 12.538 7.237 5.224-.603 3.134-9.048m-3.134 9.048v12.064M12.805 12.34v12.064" fill="none" stroke="#000" stroke-width=".265"></path><path d="m.267 17.166 12.538 7.238 5.224-.603 3.134-9.048V2.689L16.983.277l-15.67 1.81L.268 5.102z" fill="none" stroke="#131417" stroke-width=".529"></path><path d="M16.852 3.319c-.637-.01-1.269-.156-1.755-.437-.487-.28-.739-.645-.757-1.013l-3.498.035c.111.43-.12.884-.694 1.215-.363.21-.812.34-1.281.392-.625.067-1.226.241-1.71.52-1.272.736-1.277 1.926-.013 2.664.734.423 1.146.957 1.248 1.509.956.059 1.88.297 2.613.72 1.279.73 3.34.727 4.613-.008.484-.28.785-.626.903-.987.088-.27.314-.53.678-.74.573-.33 1.359-.464 2.104-.4l.06-2.02c-.636-.01-1.268-.156-1.754-.437-.487-.28-.739-.645-.757-1.013z" fill="none"></path><path d="M17.277 4.302c.467.27 1.056.427 1.664.471l-.05 1.693c-.73-.014-1.467.14-2.023.462-.404.234-.655.522-.754.824-.107.33-.382.647-.823.902-1.161.672-3.041.674-4.208.007-.722-.417-1.618-.665-2.554-.749-.145-.541-.574-1.06-1.296-1.478-1.152-.675-1.147-1.762.014-2.433.44-.255.988-.414 1.559-.476.521-.057 1.02-.203 1.424-.436.556-.322.823-.748.8-1.17l2.926-.03c.076.352.348.693.815.963.473.274 1.07.432 1.687.474.073.356.346.702.819.976z" fill="#ffffff" fill-rule="evenodd"></path><g fill="#000000" font-family="sans-serif" font-size="3.217" stroke-width=".268" style="line-height: 0%;"><path d="M177.61 45.984h2.004v.43h-1.537v.925q.112-.038.223-.056.11-.02.222-.02.632 0 1.001.346.369.346.369.938 0 .609-.38.948-.378.336-1.068.336-.238 0-.485-.04-.246-.041-.508-.122v-.513q.227.124.47.184.242.061.513.061.437 0 .692-.23.255-.23.255-.624t-.255-.624q-.255-.23-.692-.23-.205 0-.41.045-.202.046-.414.142zm4.837 1.739q.367.078.571.326.208.248.208.612 0 .558-.385.864-.384.306-1.091.306-.238 0-.49-.048-.25-.046-.519-.14v-.492q.212.124.465.187t.528.063q.48 0 .73-.19.254-.189.254-.55 0-.334-.235-.521-.233-.19-.65-.19h-.44v-.42h.46q.377 0 .576-.148.2-.152.2-.435 0-.29-.207-.445-.205-.157-.589-.157-.21 0-.45.046-.24.045-.528.142v-.455q.29-.081.543-.122.256-.04.48-.04.582 0 .92.265.34.263.34.713 0 .313-.18.53-.18.216-.51.299z" font-family="Interstate" font-size="5.176" transform="scale(1.31486 .76054) rotate(45 142.927 -178.732)" style="line-height: 1.25;"></path></g></svg></g></g></g><g pointer-events="auto"></g><g pointer-events="auto"><g opacity="1"><g id="90e60a66-708f-40f8-95da-2d48a333949c" transform="translate(0 0)"><svg x="-176" y="509" overflow="visible"><g transform="scale(0.5120000000000001) "><circle cx="0" cy="0" fill="transparent" r="40"></circle><svg width="100" height="100" x="-50" y="-50" style="fill: rgb(0, 0, 0);"><svg id="Layer_1" data-name="Layer 1" xmlns="http://www.w3.org/2000/svg" width="100" height="100" viewBox="0 0 100 100"><g><path fill="#fff" d="m49.98 85.98 31.74-18.03V31.98L49.98 49.96v36.02z"></path><path fill="#fff" d="m18.3 67.94 31.7 18V49.97L18.3 32.01v35.93zM81.5 31.98 50 14.13 18.5 31.98 50 49.86l31.5-17.88z"></path><path fill="#fff" d="M50 48.8 79.67 32l-.03-.02L50 48.8zM20.36 31.98l-.03.02L50 48.8 20.36 31.98z"></path><circle cx="50" cy="48.8" fill="#fff"></circle><path d="M81.66 30.83 50 12.89 18.34 30.83l-1 .59v37.12l31.7 18 1 .57 1-.57 31.7-18V31.41Zm-1 36.55L51 84.24v-33.7l29.7-16.83ZM49 84.24 19.3 67.37V33.71L49 50.54ZM20.36 32 50 15.19 79.64 32 50 48.8 20.33 32Z" fill="#444"></path><path fill="#8cc64f" d="m50.13 69.39 17.05-9.67V40.41l-17.05 9.66v19.32zM32.82 59.72l17.05 9.67V50.07l-17.05-9.66v19.31zM67 40.14l-17-9.63-17 9.63 17 9.66 17-9.66z"></path><path fill="#96bf3d" d="m50 48.83 15.29-8.66-.02-.02L50 48.82v.01zM34.73 40.15l-.02.02L50 48.83v-.01l-15.27-8.67z"></path><circle cx="50" cy="48.82" fill="#96bf3d"></circle><path d="M67.3 39 50 29.21 32.7 39l-1 .58v20.81L49 70.22l1 .57 1-.57 17.32-9.83V39.58Zm-1 20.22L51 67.92V50.56l15.32-8.68ZM49 67.92l-15.32-8.7V41.88L49 50.56ZM34.73 40.15 50 31.51l15.27 8.65L50 48.82l-15.29-8.65Z" fill="#fff"></path></g></svg></svg></g></svg></g></g><g opacity="1"><g id="d14169fa-2eef-4998-a505-951c780b4e8d" transform="translate(0 0)"><svg x="-528" y="786" overflow="visible"><g transform=" "><circle cx="0" cy="0" fill="transparent" r="40"></circle><svg width="100" height="100" x="-50" y="-50" style="fill: rgb(0, 0, 0);"><svg id="Layer_1" data-name="Layer 1" xmlns="http://www.w3.org/2000/svg" width="100" height="100" viewBox="0 0 100 100"><path d="M70.19 45c5.44 0 9.23 3.42 9.23 8.29v10.57h-4.78v-7.18h-1.31v7.18H66c-.48-5.36-4.82-9-10.91-9h-4.21v-2.92c4.66-.42 8.38-2.21 8.79-6.95h.44ZM39.9 45h.45c.41 4.74 4.13 6.53 8.78 6.95v2.91H45c-6.08 0-10.44 3.65-10.91 9H26.9v-7.17h-1.3v7.17h-5V53.27c0-4.89 3.79-8.29 9.23-8.29Z" fill="#7d7c7c"></path><path d="M55.05 59.31c5.44 0 9.23 3.42 9.23 8.29v10.59h-4.79V71h-1.3v7.17H42V71h-1.26v7.17h-5V67.6c0-4.87 3.79-8.29 9.23-8.29ZM34.85 24.37l8 5.67v2.47a8.07 8.07 0 0 1-8 8.16c-4.39 0-8-3.65-8-8.53V30ZM65.14 24.37l8 5.67v2.47a8.07 8.07 0 0 1-8 8.16c-4.39 0-8-3.65-8-8.53V30ZM50 35.52l7.07 5v2.19A7.16 7.16 0 0 1 50 50a7.23 7.23 0 0 1-7.05-7.56v-1.97Z" fill="#7d7c7c"></path><path d="M65.15 21.89a8.15 8.15 0 1 1-8 8.14 8.07 8.07 0 0 1 8-8.14ZM50 33a7.23 7.23 0 1 1-7.06 7.23A7.15 7.15 0 0 1 50 33ZM70.19 42.49c5.44 0 9.23 3.42 9.23 8.3v10.59h-4.78V54.2h-1.31v7.18H66c-.48-5.36-4.82-9-10.91-9h-4.21v-.91a9.79 9.79 0 0 0 8.79-8.95h.44ZM39.9 42.5h.45a9.79 9.79 0 0 0 8.78 8.95v.91H45c-6.08 0-10.44 3.65-10.91 9H26.9v-7.15h-1.3v7.17h-5V50.79c0-4.89 3.79-8.29 9.23-8.29Z" fill="#d2d3d3"></path><path d="M55.05 56.83c5.44 0 9.23 3.42 9.23 8.29v10.59h-4.79v-7.17h-1.3v7.17H42v-7.17h-1.26v7.17h-5V65.12c0-4.88 3.79-8.29 9.23-8.29ZM34.85 21.89a8.15 8.15 0 1 1-8 8.14 8.08 8.08 0 0 1 8-8.14Z" fill="#d2d3d3"></path></svg></svg></g></svg></g></g><g opacity="1"><g id="d955f03e-98bb-40dd-918d-813350d8b312" transform="translate(0 0)"><svg x="192" y="370" overflow="visible"><g transform="scale(0.6400000000000001) "><circle cx="0" cy="0" fill="transparent" r="40"></circle><svg width="100" height="100" x="-50" y="-50" style="fill: rgb(0, 0, 0);"><svg id="Layer_1" data-name="Layer 1" xmlns="http://www.w3.org/2000/svg" width="100" height="100" viewBox="0 0 100 100"><defs><clipPath id="clip-path"><path d="M71.92 26.66v2.79c0 1.28-3.62 3.38-10.42 4.58A66.67 66.67 0 0 1 50 35c-14.2 0-22-3.65-22-5.52v-2.82c0 1.87 7.75 5.52 22 5.52a66.7 66.7 0 0 0 11.55-.93c6.75-1.25 10.37-3.31 10.37-4.59Z" fill="#4f4f4f"></path></clipPath></defs><g fill="#4f4f4f"><path d="M71.92 26.66v2.79c0 1.28-3.62 3.38-10.42 4.58A66.67 66.67 0 0 1 50 35c-14.2 0-22-3.65-22-5.52v-2.82c0 1.87 7.75 5.52 22 5.52a66.7 66.7 0 0 0 11.55-.93c6.75-1.25 10.37-3.31 10.37-4.59Z"></path><g clip-path="url(#clip-path)"><path d="M71.92 26.66v2.79a.77.77 0 0 1 0 .12v-2.79a.78.78 0 0 0 0-.12M71.91 26.78v2.79a1 1 0 0 1 0 .16v-2.8a.9.9 0 0 0 0-.15M71.87 26.93v2.79a1.27 1.27 0 0 1-.11.23v-2.79a1.28 1.28 0 0 0 .11-.23"></path><path d="M71.76 27.16V30c-.76 1.23-4.3 3-10.26 4A66.67 66.67 0 0 1 50 35c-14.2 0-22-3.65-22-5.52v-2.82c0 1.87 7.75 5.52 22 5.52a66.7 66.7 0 0 0 11.55-.93c6-1.06 9.48-2.8 10.26-4.08"></path></g></g><path d="M71.89 68.62a1.1 1.1 0 0 0 .07-.37v4.51a.89.89 0 0 1 0 .15 1.54 1.54 0 0 1-.05.21 1.59 1.59 0 0 1-.12.25v.07l-.13.18-.19.23-.19.19-.27.23-.26.2-.35.24-.32.2-.45.24-.36.19-.61.27-.35.15c-.34.14-.7.27-1.09.4l-.41.13-.86.26-.57.15-.86.22-.66.14-.93.19-.75.13-1 .16-.81.11-1.14.13-.86.09L57 78l-.87.06-1.55.07h-3.3c-8 0-14-1-18-2.27-2.92-1-5-2.17-5.25-3V68.4c.22.82 2.06 1.85 4.66 2.83l-.04-.23a63.14 63.14 0 0 0 18.61 2.76h3.29l1.57-.07.85-.06 1.32-.11.82-.09 1.19-.14.76-.11 1.09-.17 5-1.2q.61-.21 1.14-.42l1-.43.23-.12.58-.32.23-.14.44-.29.2-.15.33-.28.15-.15a3.06 3.06 0 0 0 .23-.27l.02-.24Z" fill="#4f4f4f"></path><path d="M50 21.46a65.18 65.18 0 0 1 11.55.94c6.75 1.2 10.37 3.29 10.37 4.6s-3.62 3.34-10.42 4.55a66.7 66.7 0 0 1-11.5.94c-14.2 0-22-3.65-22-5.52s7.76-5.51 22-5.51Z" fill="#7d7c7c"></path><path d="M61.24 36c-.61.12-1.21.2-1.81.29-.31 0-.62.1-.95.13-.56.07-1.13.13-1.71.19-.37 0-.75.07-1.12.09-.73.06-1.47.1-2.22.13h-.37c-.87 0-1.75.06-2.67.07h-.57c-8.72 0-17.51-1.5-21.78-4.35v37.88c.23.88 2.31 2 5.21 3 3.93 1.25 10 2.27 18 2.27C65.88 75.75 72 72.18 72 70.27v-38c-2.29 1.57-6 2.93-10.76 3.73Z" fill="#7d7c7c"></path></svg></svg></g></svg></g></g><g opacity="1"><g id="6db5a3c5-45a2-4be3-82da-57891ae41c43" transform="translate(0 0)"><svg x="-48" y="601" overflow="visible"><g transform="scale(0.5120000000000001) "><circle cx="0" cy="0" fill="transparent" r="40"></circle><svg width="100" height="100" x="-50" y="-50" style="fill: rgb(0, 0, 0);"><svg id="Layer_1" data-name="Layer 1" xmlns="http://www.w3.org/2000/svg" width="100" height="100" viewBox="0 0 100 100"><g><path fill="#fff" d="m49.98 85.98 31.74-18.03V31.98L49.98 49.96v36.02z"></path><path fill="#fff" d="m18.3 67.94 31.7 18V49.97L18.3 32.01v35.93zM81.5 31.98 50 14.13 18.5 31.98 50 49.86l31.5-17.88z"></path><path fill="#fff" d="M50 48.8 79.67 32l-.03-.02L50 48.8zM20.36 31.98l-.03.02L50 48.8 20.36 31.98z"></path><circle cx="50" cy="48.8" fill="#fff"></circle><path d="M81.66 30.83 50 12.89 18.34 30.83l-1 .59v37.12l31.7 18 1 .57 1-.57 31.7-18V31.41Zm-1 36.55L51 84.24v-33.7l29.7-16.83ZM49 84.24 19.3 67.37V33.71L49 50.54ZM20.36 32 50 15.19 79.64 32 50 48.8 20.33 32Z" fill="#444"></path><path fill="#8cc64f" d="m50.13 69.39 17.05-9.67V40.41l-17.05 9.66v19.32zM32.82 59.72l17.05 9.67V50.07l-17.05-9.66v19.31zM67 40.14l-17-9.63-17 9.63 17 9.66 17-9.66z"></path><path fill="#96bf3d" d="m50 48.83 15.29-8.66-.02-.02L50 48.82v.01zM34.73 40.15l-.02.02L50 48.83v-.01l-15.27-8.67z"></path><circle cx="50" cy="48.82" fill="#96bf3d"></circle><path d="M67.3 39 50 29.21 32.7 39l-1 .58v20.81L49 70.22l1 .57 1-.57 17.32-9.83V39.58Zm-1 20.22L51 67.92V50.56l15.32-8.68ZM49 67.92l-15.32-8.7V41.88L49 50.56ZM34.73 40.15 50 31.51l15.27 8.65L50 48.82l-15.29-8.65Z" fill="#fff"></path></g></svg></svg></g></svg></g></g><g opacity="1"><g id="f055c4d0-1be5-46d7-b9cd-8e43a763b27d" transform="translate(0 0)"><svg x="160" y="389" overflow="visible"><g transform="scale(0.5120000000000001) "><circle cx="0" cy="0" fill="transparent" r="40"></circle><svg width="100" height="100" x="-50" y="-50" style="fill: rgb(0, 0, 0);"><svg id="Layer_1" data-name="Layer 1" xmlns="http://www.w3.org/2000/svg" width="100" height="100" viewBox="0 0 100 100"><g><path fill="#fff" d="m49.98 85.98 31.74-18.03V31.98L49.98 49.96v36.02z"></path><path fill="#fff" d="m18.3 67.94 31.7 18V49.97L18.3 32.01v35.93zM81.5 31.98 50 14.13 18.5 31.98 50 49.86l31.5-17.88z"></path><path fill="#fff" d="M50 48.8 79.67 32l-.03-.02L50 48.8zM20.36 31.98l-.03.02L50 48.8 20.36 31.98z"></path><circle cx="50" cy="48.8" fill="#fff"></circle><path d="M81.66 30.83 50 12.89 18.34 30.83l-1 .59v37.12l31.7 18 1 .57 1-.57 31.7-18V31.41Zm-1 36.55L51 84.24v-33.7l29.7-16.83ZM49 84.24 19.3 67.37V33.71L49 50.54ZM20.36 32 50 15.19 79.64 32 50 48.8 20.33 32Z" fill="#444"></path><path fill="#8cc64f" d="m50.13 69.39 17.05-9.67V40.41l-17.05 9.66v19.32zM32.82 59.72l17.05 9.67V50.07l-17.05-9.66v19.31zM67 40.14l-17-9.63-17 9.63 17 9.66 17-9.66z"></path><path fill="#96bf3d" d="m50 48.83 15.29-8.66-.02-.02L50 48.82v.01zM34.73 40.15l-.02.02L50 48.83v-.01l-15.27-8.67z"></path><circle cx="50" cy="48.82" fill="#96bf3d"></circle><path d="M67.3 39 50 29.21 32.7 39l-1 .58v20.81L49 70.22l1 .57 1-.57 17.32-9.83V39.58Zm-1 20.22L51 67.92V50.56l15.32-8.68ZM49 67.92l-15.32-8.7V41.88L49 50.56ZM34.73 40.15 50 31.51l15.27 8.65L50 48.82l-15.29-8.65Z" fill="#fff"></path></g></svg></svg></g></svg></g></g></g><g pointer-events="auto"><g opacity="1"><g id="34e3c7b8-71a7-4231-8aab-5f31312f0f64" transform="translate(0 0)"><svg x="-256" y="666" overflow="visible"><text stroke="#000000" stroke-width="2" font-family="Open Sans" y="36.5" font-size="25pt" fill="#f5b720" font-weight="bold" transform="matrix(0.707 0.409 -0.707 0.409 0 0)" xml:space="preserve"><tspan x="8" dy="0">Elastic Load</tspan><tspan x="8" dy="1.1em">Balancing</tspan></text><text font-family="Open Sans" y="36.5" font-size="25pt" fill="#f5b720" font-weight="bold" transform="matrix(0.707 0.409 -0.707 0.409 0 0)" xml:space="preserve"><tspan x="8" dy="0">Elastic Load</tspan><tspan x="8" dy="1.1em">Balancing</tspan></text></svg></g></g><g opacity="1"><g id="4d88fce8-b149-40cc-80f8-9fbc14dd150c" transform="translate(0 0)"><svg x="112" y="675" overflow="visible"><text stroke="#000000" stroke-width="2" font-family="Open Sans" y="25.099999999999998" font-size="15pt" fill="#ffffff" font-weight="bold" transform="matrix(0.707 -0.409 0.707 0.409 0 0)" xml:space="preserve"><tspan x="8" dy="0">Availability Zone</tspan></text><text font-family="Open Sans" y="25.099999999999998" font-size="15pt" fill="#ffffff" font-weight="bold" transform="matrix(0.707 -0.409 0.707 0.409 0 0)" xml:space="preserve"><tspan x="8" dy="0">Availability Zone</tspan></text></svg></g></g><g opacity="1"><g id="1a2dc397-a74c-4cd7-9741-ab02bcc41004" transform="translate(0 0)"><svg x="-128" y="648" overflow="visible"><text stroke="#000000" stroke-width="2" font-family="Open Sans" y="36.5" font-size="25pt" fill="#ffffff" font-weight="bold" transform="matrix(0.707 0.409 -0.707 0.409 0 0)" xml:space="preserve"><tspan x="8" dy="0">EC2</tspan></text><text font-family="Open Sans" y="36.5" font-size="25pt" fill="#ffffff" font-weight="bold" transform="matrix(0.707 0.409 -0.707 0.409 0 0)" xml:space="preserve"><tspan x="8" dy="0">EC2</tspan></text></svg></g></g><g opacity="1"><g id="17ec1f98-5192-4dfc-8968-0dc91d69a84b" transform="translate(0 0)"><svg x="-128" y="315" overflow="visible"><text stroke="#000000" stroke-width="2" font-family="Open Sans" y="36.5" font-size="25pt" fill="#ffc107" font-weight="bold" transform="matrix(0.707 0.409 -0.707 0.409 0 0)" xml:space="preserve"><tspan x="8" dy="0">S3</tspan></text><text font-family="Open Sans" y="36.5" font-size="25pt" fill="#ffc107" font-weight="bold" transform="matrix(0.707 0.409 -0.707 0.409 0 0)" xml:space="preserve"><tspan x="8" dy="0">S3</tspan></text></svg></g></g><g opacity="1"><g id="845af332-2059-46e7-977b-1691945ae24b" transform="translate(0 0)"><svg x="-176" y="324" overflow="visible"><text stroke="#000000" stroke-width="2" font-family="Open Sans" y="25.099999999999998" font-size="15pt" fill="#f5b720" font-weight="bold" transform="matrix(0.707 0.409 -0.707 0.409 0 0)" xml:space="preserve"><tspan x="8" dy="0">Bucket de imagenes</tspan></text><text font-family="Open Sans" y="25.099999999999998" font-size="15pt" fill="#f5b720" font-weight="bold" transform="matrix(0.707 0.409 -0.707 0.409 0 0)" xml:space="preserve"><tspan x="8" dy="0">Bucket de imagenes</tspan></text></svg></g></g><g opacity="1"><g id="f9d29a91-4f80-4938-ba12-f32436044dc7" transform="translate(0 0)"><svg x="208" y="398" overflow="visible"><text stroke="#000000" stroke-width="2" font-family="Open Sans" y="36.5" font-size="25pt" fill="#ffffff" font-weight="bold" transform="matrix(0.707 0.409 -0.707 0.409 0 0)" xml:space="preserve"><tspan x="8" dy="0">EC2</tspan></text><text font-family="Open Sans" y="36.5" font-size="25pt" fill="#ffffff" font-weight="bold" transform="matrix(0.707 0.409 -0.707 0.409 0 0)" xml:space="preserve"><tspan x="8" dy="0">EC2</tspan></text></svg></g></g><g opacity="1"><g id="cdec4f17-6adf-448d-b159-2d4d10c378d8"><svg x="-560" y="620" overflow="visible"><text stroke="#000000" stroke-width="2" font-family="Open Sans" y="36.5" font-size="25pt" fill="#ffffff" font-weight="bold" transform="matrix(0.707 0.409 -0.707 0.409 0 0)" xml:space="preserve"><tspan x="8" dy="0">Route 53</tspan></text><text font-family="Open Sans" y="36.5" font-size="25pt" fill="#ffffff" font-weight="bold" transform="matrix(0.707 0.409 -0.707 0.409 0 0)" xml:space="preserve"><tspan x="8" dy="0">Route 53</tspan></text></svg></g></g><g opacity="1"><g id="c987f05b-fd57-4286-8f36-b9451f0cd6e2" transform="translate(0 0)"><svg x="-464" y="768" overflow="visible"><text stroke="#000000" stroke-width="2" font-family="Open Sans" y="36.5" font-size="25pt" fill="#ffffff" font-weight="bold" transform="matrix(0.707 0.409 -0.707 0.409 0 0)" xml:space="preserve"><tspan x="8" dy="0">www.ucron.tk</tspan></text><text font-family="Open Sans" y="36.5" font-size="25pt" fill="#ffffff" font-weight="bold" transform="matrix(0.707 0.409 -0.707 0.409 0 0)" xml:space="preserve"><tspan x="8" dy="0">www.ucron.tk</tspan></text></svg></g></g><g opacity="1"><g id="30a1bd70-863e-4e44-9bf1-056dd6208d94" transform="translate(0 0)"><svg x="240" y="379" overflow="visible"><text stroke="#000000" stroke-width="2" font-family="Open Sans" y="36.5" font-size="25pt" fill="#ffffff" font-weight="bold" transform="matrix(0.707 0.409 -0.707 0.409 0 0)" xml:space="preserve"><tspan x="8" dy="0">Mysql</tspan></text><text font-family="Open Sans" y="36.5" font-size="25pt" fill="#ffffff" font-weight="bold" transform="matrix(0.707 0.409 -0.707 0.409 0 0)" xml:space="preserve"><tspan x="8" dy="0">Mysql</tspan></text></svg></g></g></g><g pointer-events="auto"><g></g><g></g><g></g><g></g><g></g><g></g><g></g><g></g><g></g><g></g></g></g></svg>